<svg xmlns="http://www.w3.org/2000/svg" width="900" height="520" viewBox="0 0 900 520">
  <rect width="900" height="520" fill="white"/>
  <text x="450" y="35" text-anchor="middle" font-family="Arial" font-size="24" font-weight="600">Number of Processed Videos per Category</text>
  <line x1="80" y1="400" x2="860" y2="400" stroke="#222" stroke-width="2"/>
  <line x1="80" y1="60" x2="80" y2="400" stroke="#222" stroke-width="2"/>
  <g font-family="Arial" font-size="13" fill="#555">
    <line x1="80" y1="400" x2="860" y2="400" stroke="#c8c8c8"/>
    <line x1="80" y1="315" x2="860" y2="315" stroke="#c8c8c8"/>
    <line x1="80" y1="230" x2="860" y2="230" stroke="#c8c8c8"/>
    <line x1="80" y1="145" x2="860" y2="145" stroke="#c8c8c8"/>
    <line x1="80" y1="60" x2="860" y2="60" stroke="#c8c8c8"/>
    <text x="65" y="405" text-anchor="end">0</text>
    <text x="65" y="320" text-anchor="end">100</text>
    <text x="65" y="235" text-anchor="end">200</text>
    <text x="65" y="150" text-anchor="end">300</text>
    <text x="65" y="65" text-anchor="end">400</text>
  </g>
  <g fill="#1f77b4">
    <rect x="135" y="103" width="120" height="297"/>
    <rect x="315" y="216" width="120" height="184"/>
    <rect x="495" y="216" width="120" height="184"/>
    <rect x="675" y="216" width="120" height="184"/>
  </g>
  <g font-family="Arial" font-size="15" fill="#222" text-anchor="middle">
    <text x="195" y="92">349</text>
    <text x="375" y="205">217</text>
    <text x="555" y="205">217</text>
    <text x="735" y="205">217</text>
    <text x="195" y="435">music</text>
    <text x="375" y="435">costumes</text>
    <text x="555" y="435">books</text>
    <text x="735" y="435">movies</text>
    <text x="470" y="485" font-size="16">Category</text>
  </g>
  <text x="25" y="250" transform="rotate(-90 25 250)" text-anchor="middle" font-family="Arial" font-size="16">Number of Videos</text>
</svg>
